<?xml version="1.0" standalone="no"?>
<!DOCTYPE svg PUBLIC "-//W3C//DTD SVG 20010904//EN"
 "http://www.w3.org/TR/2001/REC-SVG-20010904/DTD/svg10.dtd">
<svg version="1.0" xmlns="http://www.w3.org/2000/svg"
 width="128.000000pt" height="128.000000pt" viewBox="0 0 128.000000 128.000000"
 preserveAspectRatio="xMidYMid meet">

<g transform="translate(0.000000,128.000000) scale(0.100000,-0.100000)"
fill="#000000" stroke="none">
<path d="M101 1271 c-19 -12 -18 -20 28 -610 28 -360 43 -497 52 -506 18 -17
424 -145 459 -145 35 0 441 128 459 145 9 9 24 146 52 506 46 590 47 598 28
610 -18 11 -1060 11 -1078 0z m895 -288 c-4 -36 -9 -70 -12 -75 -3 -4 -125 -8
-271 -8 l-266 0 7 -37 c3 -21 6 -53 6 -70 l0 -33 260 0 259 0 -5 -62 c-3 -35
-11 -133 -17 -218 l-12 -154 -150 -49 -150 -48 -153 47 c-84 26 -155 50 -156
53 -2 3 -7 57 -11 119 l-7 112 81 0 81 0 0 -58 0 -57 83 -22 82 -22 75 21 c41
11 78 23 82 27 3 3 8 41 10 83 l3 78 -250 2 -250 3 -11 125 c-6 69 -14 167
-18 218 l-8 92 363 0 362 0 -7 -67z"/>
</g>
</svg>
